<?xml version="1.0" encoding="UTF-8" standalone="no"?>
<!-- Created with Inkscape (http://www.inkscape.org/) -->

<svg
   xmlns:dc="http://purl.org/dc/elements/1.1/"
   xmlns:cc="http://creativecommons.org/ns#"
   xmlns:rdf="http://www.w3.org/1999/02/22-rdf-syntax-ns#"
   xmlns:svg="http://www.w3.org/2000/svg"
   xmlns="http://www.w3.org/2000/svg"
   version="1.1"
   width="647"
   height="126"
   id="svg2">
  <defs
     id="defs4" />
  <metadata
     id="metadata7">
    <rdf:RDF>
      <cc:Work
         rdf:about="">
        <dc:format>image/svg+xml</dc:format>
        <dc:type
           rdf:resource="http://purl.org/dc/dcmitype/StillImage" />
        <dc:title></dc:title>
      </cc:Work>
    </rdf:RDF>
  </metadata>
  <g
     transform="translate(0,-926.36218)"
     id="layer1">
    <path
       d="m 238.94113,1036.9119 c -1.8511,-1.3547 -1.94113,-2.8969 -1.94113,-33.25 0,-30.30717 0.0982,-31.99665 2.05407,-35.32602 4.50387,-7.66688 11.14788,-9.78694 33.44593,-10.6724 19.69073,-0.78192 34.76316,0.80529 41.98962,4.42174 8.17377,4.09053 9.42835,6.89822 9.86545,22.07856 0.6519,22.64012 -1.04139,27.51172 -11.35507,32.66862 l -6,3 -27.49407,0.3359 c -19.49663,0.2382 -27.70951,0.6745 -28.23469,1.5 -0.40734,0.6402 -0.74751,4.1857 -0.75593,7.8789 -0.0128,5.6059 -0.33474,6.8858 -1.94957,7.75 -2.74088,1.4669 -7.3455,1.2825 -9.62461,-0.3853 z m 68.78271,-31.3573 c 2.15971,-2.1612 2.27616,-3.0227 2.27616,-16.83825 0,-13.92078 -0.0995,-14.64115 -2.26439,-16.39417 -3.11608,-2.52324 -11.6397,-3.26494 -32.34606,-2.81463 -18.85485,0.41004 -23.01969,1.44656 -24.24879,6.03488 -0.80674,3.0116 -0.82046,29.15807 -0.0164,31.25337 0.55917,1.4572 3.42781,1.5963 27.47385,1.3318 26.41857,-0.2905 26.88602,-0.3318 29.12564,-2.573 z m 179.62714,31.6196 c -2.38926,-1.9442 -2.99006,-4.9772 -1.55336,-7.8418 1.20516,-2.403 1.7188,-2.5225 13.22811,-3.0784 11.71038,-0.5657 17.90225,-2.1323 17.16853,-4.3439 -0.23686,-0.714 -9.27429,-1.2753 -26.7759,-1.6631 -27.27415,-0.6043 -30.99408,-1.1254 -36.94404,-5.1751 -7.37357,-5.0186 -7.44086,-5.2882 -7.77457,-31.14591 -0.33837,-26.21939 -0.38457,-26.04806 7.02379,-26.04806 6.52253,0 6.77646,0.90725 6.77646,24.21142 0,11.3778 0.43225,21.18215 0.97889,22.20355 1.84696,3.4511 6.5327,4.0395 32.17033,4.0395 13.66793,0 24.94273,-0.1125 25.05512,-0.25 0.11238,-0.1375 0.44988,-11.04455 0.75,-24.23794 L 518,959.85645 l 2.78561,-1.33362 c 3.87244,-1.85394 8.58354,-0.6647 9.77436,2.46738 1.33136,3.50175 1.19406,57.86689 -0.15872,62.84219 -1.4197,5.2215 -4.93268,8.8323 -11.26882,11.5828 -6.44672,2.7985 -28.97194,4.0452 -31.78145,1.759 z M 13.37245,1018.6787 C 12.26456,1017.3438 12,1010.0017 12,980.59043 l 0,-36.43466 2.48451,-2.01183 c 2.41015,-1.95162 3.56244,-1.99873 38.5,-1.5741 34.12698,0.41477 36.38247,0.55725 43.01401,2.71712 5.19644,1.69247 8.09325,3.37413 11.25,6.53088 l 4.25148,4.25148 0,10.67142 c 0,15.49102 -2.66732,19.94165 -14.83299,24.74991 -5.32629,2.1052 -7.59096,2.273 -37.66701,2.7908 l -32,0.551 -0.28227,12.43635 c -0.16057,7.0741 -0.75234,13.0028 -1.37245,13.75 -1.61632,1.9476 -10.27846,1.7015 -11.97283,-0.3401 z M 92.05531,978.15748 C 95.99962,975.9951 97.5,972.56765 97.5,965.71969 c 0,-12.14689 -1.38256,-12.61713 -38.75531,-13.18149 -22.35497,-0.33759 -29.60786,-0.1492 -30.75,0.79869 -1.17692,0.97676 -1.49469,3.83649 -1.49469,13.45137 0,6.71599 0.32348,12.53436 0.71883,12.92972 0.39536,0.39536 14.45786,0.58286 31.25,0.41667 26.29335,-0.26023 30.95526,-0.53467 33.58649,-1.97717 z m 52.17159,40.25752 c -11.46084,-3.7332 -15.7269,-9.1808 -15.7269,-20.08255 0,-7.6652 1.73012,-11.8049 6.62577,-15.85349 6.84879,-5.66384 10.81783,-6.31206 42.16458,-6.8862 29.02144,-0.53155 31.32076,-0.92269 24.63581,-4.19081 -1.74808,-0.8546 -7.27942,-1.61191 -13.73897,-1.88104 -9.8715,-0.41129 -10.94189,-0.64752 -12.29563,-2.71358 -2.05388,-3.13462 -0.83742,-7.35423 2.48515,-8.62036 3.62964,-1.38313 20.20795,-0.0396 27.64889,2.24068 5.98345,1.83365 10.83927,5.68397 13.35441,10.58909 0.69783,1.36094 1.11379,8.52268 1.10354,19.00001 -0.0196,20.07425 -1.0015,22.90535 -9.45314,27.25685 -4.9459,2.5466 -5.10318,2.5599 -33,2.7904 -25.1165,0.2075 -28.63055,0.036 -33.80351,-1.649 z m 59.60801,-11.3807 c 2.68413,-1.7605 2.73552,-1.9804 2.45332,-10.49995 L 206,987.83245 l -26,0 c -14.3,0 -27.60866,0.3431 -29.5748,0.7625 -5.69309,1.2142 -7.9252,3.9677 -7.9252,9.7765 0,5.96165 2.0988,8.54955 7.69422,9.48705 2.09318,0.3507 4.25578,0.809 4.80578,1.0184 0.55,0.2094 11.14601,0.285 23.54668,0.1681 19.7932,-0.1867 22.88149,-0.4322 25.28823,-2.0107 z m 153.14418,11.5359 c -6.88416,-2.4342 -11.1587,-5.6895 -13.50173,-10.2822 -1.70202,-3.3362 -1.97736,-5.905 -1.97736,-18.44785 0,-15.96922 0.74955,-19.12685 5.62684,-23.70406 7.34971,-6.89751 20.80963,-9.40694 45.37316,-8.45924 17.83637,0.68815 24.34375,2.22789 29.34322,6.943 4.66495,4.39961 5.64844,8.80456 5.62924,25.2126 -0.0183,15.62025 -1.26145,20.22205 -6.59683,24.41935 -6.59237,5.1862 -8.27747,5.4701 -34.37563,5.7918 -21.4202,0.264 -25.13116,0.079 -29.52091,-1.4734 z m 46.63504,-10.3557 c 2.95351,-0.6334 6.22525,-2.1306 7.54922,-3.4546 2.20755,-2.2075 2.33665,-3.0499 2.33665,-15.24715 0,-11.41542 -0.23264,-13.20631 -2.0089,-15.46446 -2.80481,-3.56574 -9.26536,-4.71581 -26.4911,-4.71581 -15.85634,0 -23.10515,1.11497 -26.95942,4.14674 -2.50289,1.96878 -2.54058,2.20444 -2.54058,15.88683 0,12.97355 0.14329,14.02195 2.1752,15.91495 1.19637,1.1146 3.78387,2.2939 5.75,2.6208 1.96614,0.3269 4.0248,0.747 4.5748,0.9335 2.55834,0.8677 30.98394,0.3722 35.61413,-0.6208 z M 564.5,1018.7294 c -6.24158,-1.6698 -11.56854,-5.5284 -14.5,-10.503 -1.752,-2.9732 -2,-5.192 -2,-17.89395 0,-16.29083 0.40428,-18.54433 4.11882,-22.95882 5.59208,-6.64581 13.71827,-8.9044 34.88118,-9.6949 20.16335,-0.75316 31.68822,0.54738 38.77459,4.37556 7.79971,4.21353 9.22541,7.39817 9.22541,20.60715 0,9.56481 -0.22661,10.99481 -1.94113,12.25001 -1.58703,1.1618 -8.11416,1.421 -35.78138,1.421 -37.13803,0 -36.44369,-0.1227 -33.33292,5.89275 2.50146,4.8373 6.65056,6.3789 18.55543,6.8944 5.775,0.25 11.0625,0.9053 11.75,1.4561 1.59242,1.2759 1.62576,6.9809 0.05,8.5567 -1.73369,1.7337 -22.88222,1.4477 -29.8,-0.403 z m 56.80195,-39.03347 c 0.25192,-3.45103 -0.12518,-4.47254 -2.27545,-6.16394 -4.04751,-3.18377 -14.91227,-4.51337 -32.48667,-3.97562 -20.15726,0.61678 -25.03983,2.56873 -25.03983,10.01037 0,4.7264 0.59041,4.81279 30.96498,4.53072 L 621,983.83248 l 0.30195,-4.13655 z"
       id="path3196"
       style="fill:#4b95fe" />
  </g>
</svg>
